<?xml version="1.0" encoding="utf-8"?>
<!-- Generator: Adobe Illustrator 23.0.1, SVG Export Plug-In . SVG Version: 6.00 Build 0)  -->
<svg version="1.1" id="Calque_1" xmlns="http://www.w3.org/2000/svg" xmlns:xlink="http://www.w3.org/1999/xlink" x="0px" y="0px"
	 viewBox="0 0 40 40" style="enable-background:new 0 0 40 40;" xml:space="preserve">
<style type="text/css">
	.st0{fill:#FFFFFF;}
</style>
<path class="st0" d="M29.8,13.7H10.2c-1.5,0-2.7-1.2-2.7-2.7v0c0-1.5,1.2-2.7,2.7-2.7h19.7c1.5,0,2.7,1.2,2.7,2.7v0
	C32.5,12.5,31.3,13.7,29.8,13.7z"/>
<path class="st0" d="M29.8,22.7H10.2c-1.5,0-2.7-1.2-2.7-2.7v0c0-1.5,1.2-2.7,2.7-2.7h19.7c1.5,0,2.7,1.2,2.7,2.7v0
	C32.5,21.5,31.3,22.7,29.8,22.7z"/>
<path class="st0" d="M29.8,31.7H10.2c-1.5,0-2.7-1.2-2.7-2.7v0c0-1.5,1.2-2.7,2.7-2.7h19.7c1.5,0,2.7,1.2,2.7,2.7v0
	C32.5,30.5,31.3,31.7,29.8,31.7z"/>
</svg>
