<?xml version="1.0" encoding="utf-8"?>
<!-- Generator: Adobe Illustrator 23.0.1, SVG Export Plug-In . SVG Version: 6.00 Build 0)  -->
<svg version="1.1" id="Capa_1" xmlns="http://www.w3.org/2000/svg" xmlns:xlink="http://www.w3.org/1999/xlink" x="0px" y="0px"
	 viewBox="0 0 512 512" style="enable-background:new 0 0 512 512;" xml:space="preserve">
<style type="text/css">
	.st0{fill:#FED600;}
	.st1{fill:#B72025;}
	.st2{opacity:0.1;fill:#010101;enable-background:new    ;}
	.st3{fill:#E53A35;}
</style>
<path d="M479.2,218.9C471.1,95.6,369.7,0,245.3,0C115.9,0,10.7,105.3,10.7,234.7s105.3,234.7,234.7,234.7c30.7,0,61-6.2,89.2-17.7
	c-2.5,5.4-3.9,11.4-3.9,17.7c0,11.4,4.4,22.1,12.5,30.2c8.1,8,18.8,12.5,30.1,12.5c0,0,0,0,0.1,0l53.4,0c41.1,0,74.6-33.5,74.6-74.7
	V256C501.3,240,492.3,226.2,479.2,218.9z"/>
<path class="st0" d="M32,234.7C32,117,127.7,21.3,245.3,21.3c110.8,0,201.4,83.4,212.1,192.1c-22.9,0.7-41.4,19.5-41.4,42.5v42.7
	h-24.3c0.8-2.8,2.1-5.4,2.7-8.2c0.8-3.2,0-6.5-2-9.1c-2-2.6-5.1-4.1-8.4-4.1H106.7c-3.3,0-6.3,1.5-8.4,4c-2,2.6-2.8,5.9-2,9.1
	C112,357,174.7,405.3,245.3,405.3c35,0,69.8-12.6,97.4-34.7c0.8,0.9,1.6,1.9,2.5,2.7c-8.9,7.8-14.5,19.3-14.5,32
	c0,7.9,2.4,15.2,6.2,21.6c-28.5,13.5-59.7,21-91.5,21C127.7,448,32,352.3,32,234.7z"/>
<path class="st1" d="M330.7,341.3c0,3.6,0.6,7.1,1.4,10.4c-2.6,2.2-5.2,4.3-8,6.3c-21.8-17.5-52.6-21.9-78.7-9.2
	c-26.2-12.7-57-8.3-78.9,9.4c-20.6-14.9-36.8-35.4-45.5-59.5h248.7c0,0.1-0.1,0.3-0.2,0.4C347.8,301,330.7,319.1,330.7,341.3z"/>
<path class="st2" d="M175,313.8h166c7.1-8.2,17.1-13.7,28.5-14.8c0-0.1,0.1-0.3,0.2-0.4H120.9c8.7,24.1,24.9,44.6,45.5,59.5
	c0.1-0.1,0.2-0.1,0.3-0.2c-3.2-3.3-6.2-6.7-9.1-10.3C146.9,334,157.6,313.8,175,313.8z"/>
<path class="st3" d="M304.1,370.1c-18.3,9-38.5,13.9-58.8,13.9c-21,0-41.1-4.9-59.1-13.7c16-9.4,36.3-10.3,53.7-0.2
	c3.3,2,7.4,2,10.7,0C268,360,288.2,360.9,304.1,370.1z"/>
<path class="st0" d="M480,437.3c0,29.4-23.9,53.3-53.3,53.3l-53.4,0c0,0,0,0,0,0c-5.7,0-11-2.2-15.1-6.2c-4-4-6.3-9.4-6.3-15.1
	c0-11.8,9.6-21.3,21.3-21.3H384c5.9,0,10.7-4.8,10.7-10.7s-4.8-10.7-10.7-10.7h-10.7c-11.8,0-21.3-9.6-21.3-21.3s9.6-21.3,21.3-21.3
	H384c5.9,0,10.7-4.8,10.7-10.7s-4.8-10.7-10.7-10.7h-10.7c-11.8,0-21.3-9.6-21.3-21.3s9.6-21.3,21.3-21.3H448
	c5.9,0,10.7-4.8,10.7-10.7s-4.8-10.7-10.7-10.7h-10.7V256c0-11.8,9.6-21.3,21.3-21.3S480,244.2,480,256L480,437.3L480,437.3z"/>
<path class="st2" d="M458.7,234.7V416c0,29.4-23.9,53.3-53.3,53.3l-53.4,0h0c0,5.7,2.2,11.1,6.3,15.1c4,4,9.4,6.2,15.1,6.2
	c0,0,0,0,0,0l53.4,0c29.4,0,53.3-23.9,53.3-53.3V256C480,244.2,470.4,234.7,458.7,234.7z"/>
<g>
	<circle cx="330.7" cy="170.7" r="21.3"/>
	<circle cx="160" cy="170.7" r="21.3"/>
</g>
<g>
	<path class="st2" d="M457.4,213.5c-0.6-6.1-1.5-12.1-2.6-18c-0.2-0.9-0.3-1.8-0.4-2.7c-0.9-4.8-2.2-9.5-3.4-14.2
		c-0.7-2.6-1.4-5.1-2.2-7.7c-1.1-3.5-2.3-7-3.6-10.5c-1.5-3.9-3-7.9-4.7-11.7c-0.9-2.2-1.9-4.3-2.9-6.4c-2.9-5.9-5.9-11.7-9.2-17.3
		c-0.1-0.1-0.1-0.2-0.2-0.4c-11.6-19.2-26.2-36.4-43-51.1c32.5,37.4,52.3,86.2,52.3,139.7c0,2.1-0.3,4.1-0.3,6.2
		C443,216,449.9,213.7,457.4,213.5z"/>
	<path class="st2" d="M269.4,446.6c23.4-2.8,46.2-9.5,67.5-19.6c-3.8-6.4-6.2-13.7-6.2-21.6c0-2.7,0.4-5.4,0.9-8
		c-31.6,18.5-68.3,29.3-107.5,29.3c-53.3,0-101.8-19.7-139.2-51.9c0.6,0.7,1.3,1.4,1.9,2.1c3.7,4.2,7.6,8.2,11.6,12.1
		c1.4,1.4,3,2.7,4.4,4c3.8,3.4,7.7,6.8,11.8,9.9c1.8,1.4,3.7,2.8,5.6,4.2c3.9,2.8,7.9,5.5,12,8.1c2.2,1.4,4.4,2.7,6.6,4
		c4,2.3,8,4.4,12.1,6.5c2.5,1.2,5,2.5,7.5,3.6c4.1,1.8,8.3,3.5,12.5,5c2.7,1,5.4,2.1,8.1,3c4.3,1.4,8.7,2.6,13.1,3.7
		c2.8,0.7,5.5,1.5,8.3,2.1c4.9,1,9.8,1.8,14.8,2.5c2.5,0.4,4.9,0.9,7.4,1.1c7.5,0.8,15.1,1.3,22.8,1.3c7.9,0,15.8-0.5,23.6-1.4
		C269.1,446.6,269.2,446.6,269.4,446.6z"/>
</g>
</svg>
