<?xml version="1.0" encoding="utf-8"?>
<!-- Generator: Adobe Illustrator 23.0.1, SVG Export Plug-In . SVG Version: 6.00 Build 0)  -->
<svg version="1.1" id="Capa_1" xmlns="http://www.w3.org/2000/svg" xmlns:xlink="http://www.w3.org/1999/xlink" x="0px" y="0px"
	 viewBox="0 0 512 512" style="enable-background:new 0 0 512 512;" xml:space="preserve">
<style type="text/css">
	.st0{fill:#FED600;}
	.st1{opacity:0.1;fill:#010101;enable-background:new    ;}
</style>
<path d="M256,0C114.8,0,0,114.8,0,256s114.8,256,256,256s256-114.8,256-256S397.2,0,256,0z"/>
<path class="st0" d="M256,490.7C126.6,490.7,21.3,385.4,21.3,256S126.6,21.3,256,21.3S490.7,126.6,490.7,256S385.4,490.7,256,490.7z
	"/>
<path class="st1" d="M407.3,76.9c34.6,40.9,55.6,93.7,55.6,151.3c0,129.4-105.3,234.7-234.7,234.7c-57.7,0-110.4-21-151.3-55.6
	c43.1,50.9,107.3,83.3,179.1,83.3c129.4,0,234.7-105.3,234.7-234.7C490.7,184.3,458.2,120,407.3,76.9z"/>
<g>
	<circle cx="170.7" cy="192" r="21.3"/>
	<circle cx="341.3" cy="192" r="21.3"/>
	<path d="M256,320L256,320c-89.6,0-124.4,45-125.9,46.9c-3.5,4.7-2.6,11.3,2.1,14.9c4.7,3.5,11.4,2.6,14.9-2
		c1.2-1.6,30.6-38.5,108.8-38.5h0c78.2,0,107.6,36.9,108.8,38.4c2.1,2.8,5.3,4.3,8.5,4.3c2.2,0,4.5-0.7,6.4-2.1
		c4.7-3.5,5.7-10.2,2.1-14.9C380.4,365,345.6,320,256,320z"/>
</g>
</svg>
