<?xml version="1.0" encoding="utf-8"?>
<!-- Generator: Adobe Illustrator 23.0.1, SVG Export Plug-In . SVG Version: 6.00 Build 0)  -->
<svg version="1.1" id="Capa_1" xmlns="http://www.w3.org/2000/svg" xmlns:xlink="http://www.w3.org/1999/xlink" x="0px" y="0px"
	 viewBox="0 0 512 512" style="enable-background:new 0 0 512 512;" xml:space="preserve">
<style type="text/css">
	.st0{fill:#FFFFFF;}
</style>
<g>
	<polygon class="st0" points="341.4,183.2 325.9,181 319,166.9 335.4,158.8 335.4,158.5 335.9,158.5 340.2,156.4 341.6,159.3 
		344.8,159.8 344.1,164.5 344.4,164.9 344,165.1 	"/>
	<path class="st0" d="M310.2,149.1l-8.8-17.8l21.2-10.5l8.8,17.8L310.2,149.1z M201.9,149.1l-21.2-10.5l8.8-17.8l21.2,10.5
		L201.9,149.1z M292.6,113.5l-8.8-17.8L305,85.2l8.8,17.8L292.6,113.5z M219.4,113.4L198.2,103l8.8-17.8l21.2,10.5L219.4,113.4z
		 M275,77.8L266.2,60l21.2-10.5l8.8,17.8L275,77.8z M237,77.8l-21.2-10.5l8.8-17.8L245.8,60L237,77.8z M259.6,49.2
		c-2.1-1.2-5-1.2-7.2,0l-11.8-20.5c4.6-2.7,10-4.1,15.4-4.1c0,0,0,0,0,0c5.4,0,10.8,1.4,15.4,4.1L259.6,49.2z"/>
	<polygon class="st0" points="170.6,183.2 168,165.1 167.7,164.9 167.9,164.5 167.2,159.8 170.4,159.3 171.8,156.4 176.1,158.5 
		176.6,158.5 176.6,158.8 193.1,166.9 186.1,181 	"/>
	<path class="st0" d="M100.9,306l-14.2-13.9l16.5-16.9l14.2,13.9L100.9,306z M72.5,278.3l-14.2-13.9l16.5-16.9L89,261.4L72.5,278.3z
		 M44.1,250.6l-14.2-13.9l16.5-16.9l14.2,13.9L44.1,250.6z M14.9,215c-0.1-0.3-0.1-0.7-0.2-1c0-0.1,0-0.2-0.1-0.3
		c-0.1-0.6-0.2-1.2-0.2-1.7l0-0.4c-0.1-0.6-0.1-1.2-0.1-1.8l0-0.2c0-0.2,0-0.5,0-0.7c0-7.3,2.5-14.3,7.2-19.8l0.2-0.2
		c0.4-0.4,0.8-0.9,1.2-1.3l0.3-0.3c0.4-0.5,0.9-0.9,1.4-1.3l0.1-0.1l7.2,8.1l8.8,9.3l-0.2,0.2l0,0c-0.1,0.1-0.2,0.1-0.2,0.2
		l-0.1,0.1c-0.1,0.1-0.1,0.2-0.2,0.2l0,0.1c-1.1,1.3-1.7,3-1.7,4.7l0,0.2c0,0.1,0,0.2,0,0.3l0,0.1c0,0.1,0,0.2,0,0.3
		c0,0.1,0,0.1,0,0.2c0,0.1,0,0.2,0.1,0.3L14.9,215z M52.7,200.4L49.3,177l19.7-2.9l3.4,23.4L52.7,200.4z M92,194.6l-3.4-23.4
		l19.7-2.9l3.4,23.4L92,194.6z M131.3,188.9l-3.4-23.4l19.7-2.9l3.4,23.4L131.3,188.9z"/>
	<polygon class="st0" points="140.3,329.4 122.2,326.3 122,326.5 121.6,326.2 117,325.4 117.5,322.2 115.2,319.9 118.5,316.5 
		118.6,316 118.9,316.1 131.7,303 142.9,313.9 	"/>
	<path class="st0" d="M120.1,447.2l-23.3-4l3.4-19.6l23.3,4L120.1,447.2z M126.8,407.9l-23.3-4l3.4-19.6l23.3,4L126.8,407.9z
		 M133.5,368.6l-23.3-4l3.4-19.6l23.3,4L133.5,368.6z"/>
	<path class="st0" d="M121.5,487.1c-5-0.7-9.9-2.6-14.1-5.7c-0.1-0.1-0.3-0.2-0.4-0.3c-0.4-0.3-0.8-0.6-1.2-1l-0.2-0.2
		c-0.3-0.2-0.6-0.5-0.9-0.8l-0.3-0.3c0,0-0.1-0.1-0.1-0.1l-0.1-0.1c-2.7-2.6-4.9-5.6-6.4-9l21.4-10.1c0.3,0.7,0.7,1.3,1.2,1.8
		l0.2,0.1l0.3,0.3c0.1,0,0.1,0.1,0.2,0.1l0.1,0.1c0.1,0.1,0.2,0.1,0.3,0.2l0.2,0.2c1,0.7,2,1.1,3.1,1.2L121.5,487.1z M121.8,462.6
		L121.8,462.6C121.8,462.6,121.8,462.6,121.8,462.6z M121.3,462.3L121.3,462.3C121.3,462.3,121.3,462.3,121.3,462.3z M121,462
		C121,462,121,462,121,462C121,462,121,462,121,462z"/>
	<path class="st0" d="M147.2,480l-11-20.9l17.6-9.3l11,20.9L147.2,480z M182.5,461.4l-11-20.9l17.6-9.3l11,20.9L182.5,461.4z
		 M217.8,442.9l-11-20.9l17.6-9.3l11,20.9L217.8,442.9z"/>
	<polygon class="st0" points="258.9,424.3 256,422.8 253.1,424.3 250.9,420.1 250.5,419.9 250.7,419.6 242.1,403.4 256,396.1 
		269.9,403.4 261.3,419.6 261.5,419.9 261.1,420.1 	"/>
	<path class="st0" d="M389.6,487.3l-2.4-23.5c0.1,0,0.2,0,0.3,0l0.1,0c2.3-0.4,4.4-2,5.4-4.2l21.6,9.6c-4.1,9.3-12.9,16.1-23,17.8
		l-0.1,0C390.8,487.1,390.2,487.2,389.6,487.3z M364.4,479.8l-17.6-9.2l11-20.9l17.6,9.2L364.4,479.8z M329.2,461.3l-17.6-9.2
		l11-20.9l17.6,9.2L329.2,461.3z M391.9,446.8l-3.4-19.6l23.3-4l3.4,19.6L391.9,446.8z M294,442.8l-17.6-9.2l11-20.9l17.6,9.2
		L294,442.8z M385.2,407.7l-3.4-19.6l23.3-4l3.4,19.6L385.2,407.7z M378.5,368.5l-3.4-19.6l23.3-4l3.4,19.6L378.5,368.5z"/>
	<polygon class="st0" points="371.7,329.4 369.1,313.9 380.3,303 393.1,316.1 393.5,316 393.5,316.5 396.8,319.9 394.5,322.2 
		395.1,325.4 390.4,326.2 390,326.5 389.8,326.3 	"/>
	<path class="st0" d="M411,306l-16.5-16.9l14.2-13.9l16.5,16.9L411,306z M439.5,278.3L423,261.4l14.2-13.9l16.5,16.9L439.5,278.3z
		 M467.9,250.6l-16.5-16.9l14.2-13.9l16.5,16.9L467.9,250.6z M497.1,215l-23.1-4.9c0.1-0.5,0.1-0.9,0.1-1.4c0-2.1-0.9-4.1-2.4-5.4
		l15.9-17.6c6.5,5.8,10.2,14.2,10.2,23C497.8,210.8,497.5,213,497.1,215z M459.4,200.4l-19.7-2.9l3.4-23.4l19.7,2.9L459.4,200.4z
		 M420.1,194.7l-19.7-2.9l3.4-23.4l19.7,2.9L420.1,194.7z M380.8,188.9l-19.7-2.9l3.4-23.4l19.7,2.9L380.8,188.9z"/>
</g>
</svg>
