<?xml version="1.0" encoding="utf-8"?>
<!-- Generator: Adobe Illustrator 23.0.1, SVG Export Plug-In . SVG Version: 6.00 Build 0)  -->
<svg version="1.1" id="Capa_1" xmlns="http://www.w3.org/2000/svg" xmlns:xlink="http://www.w3.org/1999/xlink" x="0px" y="0px"
	 viewBox="0 0 512 512" style="enable-background:new 0 0 512 512;" xml:space="preserve">
<style type="text/css">
	.st0{fill:url(#SVGID_1_);}
	.st1{fill:url(#SVGID_2_);}
	.st2{fill:url(#SVGID_3_);}
	.st3{fill:url(#SVGID_4_);}
	.st4{fill:url(#SVGID_5_);}
	.st5{fill:url(#SVGID_6_);}
	.st6{fill:url(#SVGID_7_);}
</style>
<linearGradient id="SVGID_1_" gradientUnits="userSpaceOnUse" x1="251.6878" y1="-403.6715" x2="251.6878" y2="125.9385" gradientTransform="matrix(1.0667 0 0 1.0667 -12.4746 499.126)">
	<stop  offset="0" style="stop-color:#FFCF95"/>
	<stop  offset="0.427" style="stop-color:#FFC954"/>
	<stop  offset="1" style="stop-color:#FFC200"/>
</linearGradient>
<path class="st0" d="M274.8,23.2l67.7,137.2l151.4,22c17.2,2.5,24.1,23.7,11.6,35.8L396.1,325.1l25.9,150.8
	c2.9,17.2-15.1,30.3-30.5,22.1L256,426.8L120.6,498c-15.4,8.1-33.4-5-30.5-22.1l25.9-150.8L6.4,218.3c-12.5-12.2-5.6-33.3,11.6-35.8
	l151.4-22l67.7-137.2C244.9,7.6,267.1,7.6,274.8,23.2z"/>
<linearGradient id="SVGID_2_" gradientUnits="userSpaceOnUse" x1="376.0949" y1="-335.3619" x2="215.9949" y2="-335.3619" gradientTransform="matrix(1.0667 0 0 1.0667 -12.4746 499.126)">
	<stop  offset="0" style="stop-color:#FFC200;stop-opacity:0"/>
	<stop  offset="0.203" style="stop-color:#FFBB00;stop-opacity:0.203"/>
	<stop  offset="0.499" style="stop-color:#FFA700;stop-opacity:0.499"/>
	<stop  offset="0.852" style="stop-color:#FF8800;stop-opacity:0.852"/>
	<stop  offset="1" style="stop-color:#FF7800"/>
</linearGradient>
<path class="st1" d="M342.6,160.4L274.8,23.2c-3.9-7.8-11.3-11.7-18.8-11.7v259.8L342.6,160.4z"/>
<linearGradient id="SVGID_3_" gradientUnits="userSpaceOnUse" x1="403.4313" y1="-90.0788" x2="361.0313" y2="-298.8788" gradientTransform="matrix(1.0667 0 0 1.0667 -12.4746 499.126)">
	<stop  offset="0" style="stop-color:#FFC200;stop-opacity:0"/>
	<stop  offset="0.203" style="stop-color:#FFBB00;stop-opacity:0.203"/>
	<stop  offset="0.499" style="stop-color:#FFA700;stop-opacity:0.499"/>
	<stop  offset="0.852" style="stop-color:#FF8800;stop-opacity:0.852"/>
	<stop  offset="1" style="stop-color:#FF7800"/>
</linearGradient>
<path class="st2" d="M396.1,325.1l109.6-106.8c6.2-6,7.6-14.2,5.4-21.2l-255,74.3L396.1,325.1z"/>
<linearGradient id="SVGID_4_" gradientUnits="userSpaceOnUse" x1="197.8519" y1="19.6455" x2="363.912" y2="-146.4145" gradientTransform="matrix(1.0667 0 0 1.0667 -12.4746 499.126)">
	<stop  offset="0" style="stop-color:#FFC200;stop-opacity:0"/>
	<stop  offset="0.203" style="stop-color:#FFBB00;stop-opacity:0.203"/>
	<stop  offset="0.499" style="stop-color:#FFA700;stop-opacity:0.499"/>
	<stop  offset="0.852" style="stop-color:#FF8800;stop-opacity:0.852"/>
	<stop  offset="1" style="stop-color:#FF7800"/>
</linearGradient>
<path class="st3" d="M413.6,496.4L256,271.3v155.5L391.4,498C399.2,502.1,407.6,500.8,413.6,496.4z"/>
<linearGradient id="SVGID_5_" gradientUnits="userSpaceOnUse" x1="79.43" y1="-190.3456" x2="201.8301" y2="-87.9456" gradientTransform="matrix(1.0667 0 0 1.0667 -12.4746 499.126)">
	<stop  offset="0" style="stop-color:#FFC200;stop-opacity:0"/>
	<stop  offset="0.203" style="stop-color:#FFBB00;stop-opacity:0.203"/>
	<stop  offset="0.499" style="stop-color:#FFA700;stop-opacity:0.499"/>
	<stop  offset="0.852" style="stop-color:#FF8800;stop-opacity:0.852"/>
	<stop  offset="1" style="stop-color:#FF7800"/>
</linearGradient>
<path class="st4" d="M256,271.3l-140.1,53.8L90.1,475.9c-1.5,8.5,2.3,16.1,8.3,20.5L256,271.3z"/>
<linearGradient id="SVGID_6_" gradientUnits="userSpaceOnUse" x1="171.1898" y1="-359.2632" x2="121.5898" y2="-218.4633" gradientTransform="matrix(1.0667 0 0 1.0667 -12.4746 499.126)">
	<stop  offset="0" style="stop-color:#FFC200;stop-opacity:0"/>
	<stop  offset="0.203" style="stop-color:#FFBB00;stop-opacity:0.203"/>
	<stop  offset="0.499" style="stop-color:#FFA700;stop-opacity:0.499"/>
	<stop  offset="0.852" style="stop-color:#FF8800;stop-opacity:0.852"/>
	<stop  offset="1" style="stop-color:#FF7800"/>
</linearGradient>
<path class="st5" d="M1,197l255,74.3l-86.6-110.9L18,182.4C9.3,183.7,3.2,189.8,1,197L1,197z"/>
<linearGradient id="SVGID_7_" gradientUnits="userSpaceOnUse" x1="357.8996" y1="-344.5529" x2="-6.5004" y2="-189.3529" gradientTransform="matrix(1.0667 0 0 1.0667 -12.4746 499.126)">
	<stop  offset="0" style="stop-color:#FFC200;stop-opacity:0"/>
	<stop  offset="0.203" style="stop-color:#FFBB00;stop-opacity:0.203"/>
	<stop  offset="0.499" style="stop-color:#FFA700;stop-opacity:0.499"/>
	<stop  offset="0.852" style="stop-color:#FF8800;stop-opacity:0.852"/>
	<stop  offset="1" style="stop-color:#FF7800"/>
</linearGradient>
<path class="st6" d="M115.9,325.1L6.4,218.3c-6.2-6-7.6-14.2-5.4-21.2l255,74.3L115.9,325.1z"/>
</svg>
